<?xml version="1.0" encoding="utf-8"?>
<!-- Generator: Adobe Illustrator 22.0.0, SVG Export Plug-In . SVG Version: 6.00 Build 0)  -->
<svg version="1.1" id="Layer_1" xmlns="http://www.w3.org/2000/svg" xmlns:xlink="http://www.w3.org/1999/xlink" x="0px" y="0px"
	 viewBox="0 0 356.8 72" style="enable-background:new 0 0 356.8 72;" xml:space="preserve">
<style type="text/css">
	.st0{fill:#FFFFFF;}
</style>
<g>
	<polygon class="st0" points="237.3,55.3 250.4,55.3 252.5,70.7 264.1,70.7 251.3,1 236.4,1 223.5,70.7 235.1,70.7 	"/>
	<path class="st0" d="M284.6,42.1c1.1,0,2.2,0,3.3,0c1.1,0,2.1-0.1,2.8-0.2l8.5,28.9h12.2l-10.1-31.6c1-0.4,2-1.1,3-1.9
		c1-0.8,1.9-1.9,2.7-3.3c0.8-1.4,1.4-3.1,1.9-5.1s0.7-4.4,0.7-7.2c0-7.4-1.7-12.7-5.1-15.8c-3.4-3.2-8.5-4.7-15.2-4.7h-16.8v69.7h12
		V42.1H284.6z"/>
	<path class="st0" d="M18,71.7c2.8,0,5.3-0.4,7.7-1.2c2.4-0.8,4.3-1.9,6-3.4c1.6-1.5,2.9-3.4,3.9-5.6c0.9-2.2,1.4-4.8,1.4-7.7
		c0-3.2-0.6-6-1.8-8.5s-2.7-4.7-4.5-6.8s-3.8-3.9-5.9-5.7c-2.1-1.7-4.1-3.4-5.9-5.1s-3.3-3.3-4.5-5s-1.8-3.5-1.8-5.5
		c0-2.2,0.5-3.9,1.5-5.1s2.5-1.8,4.4-1.8c0.6,0,1.3,0.1,2,0.4c0.7,0.3,1.4,0.7,2,1.3s1.1,1.4,1.5,2.4s0.7,2.2,0.8,3.7l11.4-1.3
		c-0.3-2.4-0.8-4.7-1.7-6.8s-2-3.8-3.4-5.4c-1.4-1.5-3-2.7-5-3.5C24.4,0.4,22.2,0,19.8,0C13.8,0,9.3,1.5,6,4.5
		c-3.2,3-4.8,7.3-4.8,12.9c0,3.3,0.6,6.3,1.8,8.8S5.7,31,7.5,33s3.8,3.8,5.9,5.5s4.1,3.3,5.9,5s3.3,3.4,4.5,5.2s1.8,3.9,1.8,6.2
		c0,2.1-0.6,3.6-1.9,4.7c-1.3,1.1-3,1.6-5,1.6c-1.9,0-3.5-0.9-4.8-2.6c-1.3-1.7-2.1-4.4-2.3-7.9L0.1,52.4c0.1,2.6,0.6,5.1,1.4,7.4
		c0.8,2.3,2,4.4,3.5,6.1c1.5,1.8,3.4,3.2,5.6,4.2C12.8,71.2,15.3,71.7,18,71.7z"/>
	<path class="st0" d="M336,71.7c2.8,0,5.3-0.4,7.7-1.2c2.4-0.8,4.3-1.9,6-3.4c1.6-1.5,2.9-3.4,3.9-5.6c0.9-2.2,1.4-4.8,1.4-7.7
		c0-3.2-0.6-6-1.8-8.5c-1.2-2.5-2.7-4.7-4.5-6.8s-3.8-3.9-5.9-5.7c-2.1-1.7-4.1-3.4-5.9-5.1s-3.3-3.3-4.5-5s-1.8-3.5-1.8-5.5
		c0-2.2,0.5-3.9,1.5-5.1s2.5-1.8,4.4-1.8c0.6,0,1.3,0.1,2,0.4c0.7,0.3,1.4,0.7,2,1.3s1.1,1.4,1.5,2.4s0.7,2.2,0.8,3.7l11.4-1.3
		c-0.3-2.4-0.8-4.7-1.7-6.8c-0.9-2.1-2-3.8-3.4-5.4c-1.4-1.5-3-2.7-5-3.5c-1.9-0.8-4.1-1.3-6.6-1.3c-5.9,0-10.5,1.5-13.7,4.5
		s-4.8,7.3-4.8,12.9c0,3.3,0.6,6.3,1.8,8.8c1.2,2.5,2.7,4.8,4.5,6.8s3.8,3.8,5.9,5.5s4.1,3.3,5.9,5s3.3,3.4,4.5,5.2s1.8,3.9,1.8,6.2
		c0,2.1-0.6,3.6-1.9,4.7c-1.3,1.1-3,1.6-5,1.6c-1.9,0-3.5-0.9-4.8-2.6c-1.3-1.7-2.1-4.4-2.3-7.9L318,52.1c0.1,2.6,0.6,5.1,1.4,7.4
		c0.8,2.3,2,4.4,3.5,6.1c1.5,1.8,3.4,3.2,5.6,4.2C330.8,71.2,333.3,71.7,336,71.7z"/>
	<polygon class="st0" points="115.8,29.4 102.9,29.4 102.9,1 91,1 91,70.7 102.9,70.7 102.9,39.8 115.8,39.8 115.8,70.7 127.8,70.7 
		127.8,1 115.8,1 	"/>
	<polygon class="st0" points="181.8,1 181.8,70.7 216.7,70.7 216.7,60.3 193.8,60.3 193.8,1 	"/>
	<path class="st0" d="M82.4,24.2v-5.8C82.4,8.3,74.1,0,63.9,0S45.5,8.3,45.5,18.4v34.8c0,10.2,8.3,18.4,18.4,18.4
		c10.2,0,18.4-8.3,18.4-18.4v-7.4h-12v9c0,3.5-2.9,6.4-6.4,6.4s-6.4-2.9-6.4-6.4v-38c0-3.5,2.9-6.4,6.4-6.4s6.4,2.9,6.4,6.4v7.4
		C70.3,24.2,82.4,24.2,82.4,24.2z"/>
	<g>
		<path class="st0" d="M154.8,0c-10.2,0-18.4,8.3-18.4,18.4v34.8c0,10.2,8.3,18.4,18.4,18.4c10.2,0,18.4-8.3,18.4-18.4V18.4
			C173.2,8.3,165,0,154.8,0z"/>
	</g>
</g>
</svg>
