<?xml version="1.0" encoding="utf-8"?>
<!-- Generator: Adobe Illustrator 22.0.0, SVG Export Plug-In . SVG Version: 6.00 Build 0)  -->
<svg version="1.1" id="Layer_1" xmlns="http://www.w3.org/2000/svg" xmlns:xlink="http://www.w3.org/1999/xlink" x="0px" y="0px"
	 viewBox="0 0 697.7 72" style="enable-background:new 0 0 697.7 72;" xml:space="preserve">
<style type="text/css">
	.st0{fill:#231F20;}
</style>
<g>
	<polygon class="st0" points="578.2,55.3 591.3,55.3 593.4,70.7 605,70.7 592.2,1 577.3,1 564.5,70.7 576.1,70.7 	"/>
	<path class="st0" d="M625.5,42.1c1.1,0,2.2,0,3.3,0c1.1,0,2.1-0.1,2.8-0.2l8.5,28.9h12.2l-10.1-31.6c1-0.4,2-1.1,3-1.9
		c1-0.8,1.9-1.9,2.7-3.3c0.8-1.4,1.4-3.1,1.9-5.1c0.5-2,0.7-4.4,0.7-7.2c0-7.4-1.7-12.7-5.1-15.8c-3.4-3.2-8.5-4.7-15.2-4.7h-16.8
		v69.7h12V42.1z"/>
	<path class="st0" d="M359,71.7c2.8,0,5.3-0.4,7.7-1.2c2.4-0.8,4.3-1.9,6-3.4c1.6-1.5,2.9-3.4,3.9-5.6c0.9-2.2,1.4-4.8,1.4-7.7
		c0-3.2-0.6-6-1.8-8.5c-1.2-2.5-2.7-4.7-4.5-6.8c-1.8-2.1-3.8-3.9-5.9-5.7c-2.1-1.7-4.1-3.4-5.9-5.1c-1.8-1.7-3.3-3.3-4.5-5
		c-1.2-1.7-1.8-3.5-1.8-5.5c0-2.2,0.5-3.9,1.5-5.1c1-1.2,2.5-1.8,4.4-1.8c0.6,0,1.3,0.1,2,0.4c0.7,0.3,1.4,0.7,2,1.3
		c0.6,0.6,1.1,1.4,1.5,2.4c0.4,1,0.7,2.2,0.8,3.7l11.4-1.3c-0.3-2.4-0.8-4.7-1.7-6.8c-0.9-2.1-2-3.8-3.4-5.4c-1.4-1.5-3-2.7-5-3.5
		c-1.9-0.8-4.1-1.3-6.6-1.3c-5.9,0-10.5,1.5-13.7,4.5c-3.2,3-4.8,7.3-4.8,12.9c0,3.3,0.6,6.3,1.8,8.8c1.2,2.5,2.7,4.8,4.5,6.8
		c1.8,2,3.8,3.8,5.9,5.5c2.1,1.7,4.1,3.3,5.9,5c1.8,1.7,3.3,3.4,4.5,5.2c1.2,1.8,1.8,3.9,1.8,6.2c0,2.1-0.6,3.6-1.9,4.7
		c-1.3,1.1-3,1.6-5,1.6c-1.9,0-3.5-0.9-4.8-2.6c-1.3-1.7-2.1-4.4-2.3-7.9L341,52.4c0.1,2.6,0.6,5.1,1.4,7.4c0.8,2.3,2,4.4,3.5,6.1
		c1.5,1.8,3.4,3.2,5.6,4.2C353.7,71.2,356.2,71.7,359,71.7z"/>
	<path class="st0" d="M677,71.7c2.8,0,5.3-0.4,7.7-1.2c2.4-0.8,4.3-1.9,6-3.4c1.6-1.5,2.9-3.4,3.9-5.6c0.9-2.2,1.4-4.8,1.4-7.7
		c0-3.2-0.6-6-1.8-8.5c-1.2-2.5-2.7-4.7-4.5-6.8c-1.8-2.1-3.8-3.9-5.9-5.7c-2.1-1.7-4.1-3.4-5.9-5.1c-1.8-1.7-3.3-3.3-4.5-5
		c-1.2-1.7-1.8-3.5-1.8-5.5c0-2.2,0.5-3.9,1.5-5.1c1-1.2,2.5-1.8,4.4-1.8c0.6,0,1.3,0.1,2,0.4c0.7,0.3,1.4,0.7,2,1.3
		c0.6,0.6,1.1,1.4,1.5,2.4c0.4,1,0.7,2.2,0.8,3.7l11.4-1.3c-0.3-2.4-0.8-4.7-1.7-6.8c-0.9-2.1-2-3.8-3.4-5.4c-1.4-1.5-3-2.7-5-3.5
		c-1.9-0.8-4.1-1.3-6.6-1.3c-5.9,0-10.5,1.5-13.7,4.5c-3.2,3-4.8,7.3-4.8,12.9c0,3.3,0.6,6.3,1.8,8.8c1.2,2.5,2.7,4.8,4.5,6.8
		c1.8,2,3.8,3.8,5.9,5.5c2.1,1.7,4.1,3.3,5.9,5c1.8,1.7,3.3,3.4,4.5,5.2c1.2,1.8,1.8,3.9,1.8,6.2c0,2.1-0.6,3.6-1.9,4.7
		c-1.3,1.1-3,1.6-5,1.6c-1.9,0-3.5-0.9-4.8-2.6c-1.3-1.7-2.1-4.4-2.3-7.9L659,52.4c0.1,2.6,0.6,5.1,1.4,7.4c0.8,2.3,2,4.4,3.5,6.1
		c1.5,1.8,3.4,3.2,5.6,4.2C671.7,71.2,674.2,71.7,677,71.7z"/>
	<polygon class="st0" points="456.7,29.4 443.9,29.4 443.9,1 431.9,1 431.9,70.7 443.9,70.7 443.9,39.8 456.7,39.8 456.7,70.7 
		468.7,70.7 468.7,1 456.7,1 	"/>
	<polygon class="st0" points="522.7,1 522.7,70.7 557.7,70.7 557.7,60.3 534.7,60.3 534.7,1 	"/>
	<path class="st0" d="M423.3,24.2v-5.8c0-10.2-8.3-18.4-18.4-18.4c-10.2,0-18.4,8.3-18.4,18.4v34.8c0,10.2,8.3,18.4,18.4,18.4
		c10.2,0,18.4-8.3,18.4-18.4v-7.4h-12v9c0,3.5-2.9,6.4-6.4,6.4c-3.5,0-6.4-2.9-6.4-6.4v-38c0-3.5,2.9-6.4,6.4-6.4
		c3.5,0,6.4,2.9,6.4,6.4v7.4H423.3z"/>
	<g>
		<path class="st0" d="M495.7,0c-10.2,0-18.4,8.3-18.4,18.4v34.8c0,10.2,8.3,18.4,18.4,18.4c10.2,0,18.4-8.3,18.4-18.4V18.4
			C514.2,8.3,505.9,0,495.7,0z"/>
	</g>
</g>
<g>
	<path class="st0" d="M34.9,5.7C31.4,2.5,26,1,18.6,1H1.4v69.7h12V42.1h5.2c3.7,0,6.9-0.4,9.6-1.1c2.7-0.7,5-1.9,6.8-3.6
		c1.8-1.6,3.1-3.8,4-6.4c0.9-2.6,1.3-5.8,1.3-9.5C40.2,14.1,38.4,8.9,34.9,5.7z"/>
	<polygon class="st0" points="56.8,55.3 70,55.3 72.1,70.7 83.7,70.7 70.9,1 56,1 43.1,70.7 54.7,70.7 	"/>
	<path class="st0" d="M104.2,42.1c1.1,0,2.2,0,3.3,0c1.1,0,2.1-0.1,2.8-0.2l8.5,28.9h12.2l-10.1-31.6c1-0.4,2-1.1,3-1.9
		c1-0.8,1.9-1.9,2.7-3.3c0.8-1.4,1.4-3.1,1.9-5.1c0.5-2,0.7-4.4,0.7-7.2c0-7.4-1.7-12.7-5.1-15.8C120.8,2.5,115.7,1,109,1H92.2v69.7
		h12V42.1z"/>
	<path class="st0" d="M155.6,71.7c2.8,0,5.3-0.4,7.7-1.2c2.4-0.8,4.3-1.9,6-3.4c1.6-1.5,2.9-3.4,3.9-5.6c0.9-2.2,1.4-4.8,1.4-7.7
		c0-3.2-0.6-6-1.8-8.5c-1.2-2.5-2.7-4.7-4.5-6.8c-1.8-2.1-3.8-3.9-5.9-5.7c-2.1-1.7-4.1-3.4-5.9-5.1c-1.8-1.7-3.3-3.3-4.5-5
		c-1.2-1.7-1.8-3.5-1.8-5.5c0-2.2,0.5-3.9,1.5-5.1c1-1.2,2.5-1.8,4.4-1.8c0.6,0,1.3,0.1,2,0.4c0.7,0.3,1.4,0.7,2,1.3
		c0.6,0.6,1.1,1.4,1.5,2.4c0.4,1,0.7,2.2,0.8,3.7l11.4-1.3c-0.3-2.4-0.8-4.7-1.7-6.8c-0.9-2.1-2-3.8-3.4-5.4c-1.4-1.5-3-2.7-5-3.5
		C162,0.4,159.8,0,157.4,0c-5.9,0-10.5,1.5-13.7,4.5c-3.2,3-4.8,7.3-4.8,12.9c0,3.3,0.6,6.3,1.8,8.8c1.2,2.5,2.7,4.8,4.5,6.8
		c1.8,2,3.8,3.8,5.9,5.5c2.1,1.7,4.1,3.3,5.9,5c1.8,1.7,3.3,3.4,4.5,5.2c1.2,1.8,1.8,3.9,1.8,6.2c0,2.1-0.6,3.6-1.9,4.7
		c-1.3,1.1-3,1.6-5,1.6c-1.9,0-3.5-0.9-4.8-2.6c-1.3-1.7-2.1-4.4-2.3-7.9l-11.4,1.6c0.1,2.6,0.6,5.1,1.4,7.4c0.8,2.3,2,4.4,3.5,6.1
		c1.5,1.8,3.4,3.2,5.6,4.2C150.4,71.2,152.9,71.7,155.6,71.7z"/>
	<path class="st0" d="M291.9,71.7c2.8,0,5.3-0.4,7.7-1.2c2.4-0.8,4.3-1.9,6-3.4c1.6-1.5,2.9-3.4,3.9-5.6c0.9-2.2,1.4-4.8,1.4-7.7
		c0-3.2-0.6-6-1.8-8.5c-1.2-2.5-2.7-4.7-4.5-6.8c-1.8-2.1-3.8-3.9-5.9-5.7c-2.1-1.7-4.1-3.4-5.9-5.1c-1.8-1.7-3.3-3.3-4.5-5
		c-1.2-1.7-1.8-3.5-1.8-5.5c0-2.2,0.5-3.9,1.5-5.1c1-1.2,2.5-1.8,4.4-1.8c0.6,0,1.3,0.1,2,0.4c0.7,0.3,1.4,0.7,2,1.3
		c0.6,0.6,1.1,1.4,1.5,2.4c0.4,1,0.7,2.2,0.8,3.7l11.4-1.3c-0.3-2.4-0.8-4.7-1.7-6.8c-0.9-2.1-2-3.8-3.4-5.4c-1.4-1.5-3-2.7-5-3.5
		c-1.9-0.8-4.1-1.3-6.6-1.3c-5.9,0-10.5,1.5-13.7,4.5c-3.2,3-4.8,7.3-4.8,12.9c0,3.3,0.6,6.3,1.8,8.8c1.2,2.5,2.7,4.8,4.5,6.8
		c1.8,2,3.8,3.8,5.9,5.5c2.1,1.7,4.1,3.3,5.9,5c1.8,1.7,3.3,3.4,4.5,5.2c1.2,1.8,1.8,3.9,1.8,6.2c0,2.1-0.6,3.6-1.9,4.7
		c-1.3,1.1-3,1.6-5,1.6c-1.9,0-3.5-0.9-4.8-2.6c-1.3-1.7-2.1-4.4-2.3-7.9l-11.4,1.6c0.1,2.6,0.6,5.1,1.4,7.4c0.8,2.3,2,4.4,3.5,6.1
		c1.5,1.8,3.4,3.2,5.6,4.2C286.7,71.2,289.1,71.7,291.9,71.7z"/>
	<polygon class="st0" points="239.5,27.1 239.7,27.1 255,70.7 265.4,70.7 265.4,1 254.6,1 254.6,40.9 254.4,40.9 239.8,1 228.7,1 
		228.7,70.7 239.5,70.7 	"/>
	<g>
		<path class="st0" d="M201.5,0c-10.2,0-18.4,8.3-18.4,18.4v34.8c0,10.2,8.3,18.4,18.4,18.4c10.2,0,18.4-8.3,18.4-18.4V18.4
			C220,8.3,211.7,0,201.5,0z"/>
	</g>
</g>
</svg>
